<svg width="151" height="98" viewBox="0 0 151 98" fill="none" xmlns="http://www.w3.org/2000/svg">
<g filter="url(#filter0_ddii_372_9212)">
<path d="M116.697 75H38.3025V70.2066H32.9013V65.4131H27.5V36.5869H32.9013V31.7934H38.3025V27H116.697V31.7934H122.099V36.5869H127.5V65.4131H122.099V70.2066H116.697V75Z" fill="url(#paint0_linear_372_9212)"/>
<path d="M116.697 76H117.697V75V71.2066H122.099H123.099V70.2066V66.4131H127.5H128.5V65.4131V36.5869V35.5869H127.5H123.099V31.7934V30.7934H122.099H117.697V27V26H116.697H38.3025H37.3025V27V30.7934H32.9013H31.9013V31.7934V35.5869H27.5H26.5V36.5869V65.4131V66.4131H27.5H31.9013V70.2066V71.2066H32.9013H37.3025V75V76H38.3025H116.697Z" stroke="url(#paint1_linear_372_9212)" stroke-width="2"/>
</g>
<g filter="url(#filter1_d_372_9212)">
<path fill-rule="evenodd" clip-rule="evenodd" d="M67.7 47.7344L67.7 41.3672L61.3328 41.3672L61.3328 47.7344L67.7 47.7344ZM74.0672 54.1001L74.0672 47.7344L67.7 47.7344L67.7 54.1001L74.0672 54.1001ZM80.4328 60.4673L80.4328 54.1001L74.0672 54.1001L74.0672 60.4673L80.4328 60.4673ZM86.8 54.1001L86.8 47.7344L80.4328 47.7344L80.4328 54.1001L86.8 54.1001ZM93.1672 47.7344L93.1672 41.3672L86.8 41.3672L86.8 47.7344L93.1672 47.7344Z" fill="white"/>
</g>
<defs>
<filter id="filter0_ddii_372_9212" x="0.5" y="0" width="150" height="98" filterUnits="userSpaceOnUse" color-interpolation-filters="sRGB">
<feFlood flood-opacity="0" result="BackgroundImageFix"/>
<feColorMatrix in="SourceAlpha" type="matrix" values="0 0 0 0 0 0 0 0 0 0 0 0 0 0 0 0 0 0 127 0" result="hardAlpha"/>
<feOffset dx="-2" dy="-2"/>
<feGaussianBlur stdDeviation="11.5"/>
<feColorMatrix type="matrix" values="0 0 0 0 0.14902 0 0 0 0 0.180392 0 0 0 0 0.196078 0 0 0 0.4 0"/>
<feBlend mode="normal" in2="BackgroundImageFix" result="effect1_dropShadow_372_9212"/>
<feColorMatrix in="SourceAlpha" type="matrix" values="0 0 0 0 0 0 0 0 0 0 0 0 0 0 0 0 0 0 127 0" result="hardAlpha"/>
<feOffset dx="6" dy="6"/>
<feGaussianBlur stdDeviation="7.5"/>
<feColorMatrix type="matrix" values="0 0 0 0 0.0646354 0 0 0 0 0.0646354 0 0 0 0 0.0708333 0 0 0 0.45 0"/>
<feBlend mode="normal" in2="effect1_dropShadow_372_9212" result="effect2_dropShadow_372_9212"/>
<feBlend mode="normal" in="SourceGraphic" in2="effect2_dropShadow_372_9212" result="shape"/>
<feColorMatrix in="SourceAlpha" type="matrix" values="0 0 0 0 0 0 0 0 0 0 0 0 0 0 0 0 0 0 127 0" result="hardAlpha"/>
<feOffset dy="-2"/>
<feGaussianBlur stdDeviation="1.5"/>
<feComposite in2="hardAlpha" operator="arithmetic" k2="-1" k3="1"/>
<feColorMatrix type="matrix" values="0 0 0 0 0.245833 0 0 0 0 0.245833 0 0 0 0 0.245833 0 0 0 0.45 0"/>
<feBlend mode="normal" in2="shape" result="effect3_innerShadow_372_9212"/>
<feColorMatrix in="SourceAlpha" type="matrix" values="0 0 0 0 0 0 0 0 0 0 0 0 0 0 0 0 0 0 127 0" result="hardAlpha"/>
<feOffset dy="3"/>
<feGaussianBlur stdDeviation="2"/>
<feComposite in2="hardAlpha" operator="arithmetic" k2="-1" k3="1"/>
<feColorMatrix type="matrix" values="0 0 0 0 1 0 0 0 0 1 0 0 0 0 1 0 0 0 0.25 0"/>
<feBlend mode="overlay" in2="effect3_innerShadow_372_9212" result="effect4_innerShadow_372_9212"/>
</filter>
<filter id="filter1_d_372_9212" x="54.3328" y="34.3672" width="45.8345" height="33.1001" filterUnits="userSpaceOnUse" color-interpolation-filters="sRGB">
<feFlood flood-opacity="0" result="BackgroundImageFix"/>
<feColorMatrix in="SourceAlpha" type="matrix" values="0 0 0 0 0 0 0 0 0 0 0 0 0 0 0 0 0 0 127 0" result="hardAlpha"/>
<feOffset/>
<feGaussianBlur stdDeviation="3.5"/>
<feComposite in2="hardAlpha" operator="out"/>
<feColorMatrix type="matrix" values="0 0 0 0 1 0 0 0 0 1 0 0 0 0 1 0 0 0 0.25 0"/>
<feBlend mode="normal" in2="BackgroundImageFix" result="effect1_dropShadow_372_9212"/>
<feBlend mode="normal" in="SourceGraphic" in2="effect1_dropShadow_372_9212" result="shape"/>
</filter>
<linearGradient id="paint0_linear_372_9212" x1="110" y1="69" x2="89.1523" y2="16.0122" gradientUnits="userSpaceOnUse">
<stop stop-color="#2F353A"/>
<stop offset="1" stop-color="#1E2124"/>
</linearGradient>
<linearGradient id="paint1_linear_372_9212" x1="110.455" y1="69.5455" x2="81.339" y2="-6.19503" gradientUnits="userSpaceOnUse">
<stop stop-color="#38424D"/>
<stop offset="1" stop-color="#0F0F10"/>
</linearGradient>
</defs>
</svg>
